#
# Object file
# Created by SpaceClaim
#

mtllib excavator_BobcatE85_shoe.mtl

# excavator_BobcatE85_shoe\Solid
v -0.016787463799119 0.025000000372529 0.0739851742982864
v -0.0171789918094873 0.025000000372529 0.0731753781437874
v -0.0174190923571587 0.025000000372529 0.0723085328936577
v -0.0175000000745058 0.025000000372529 0.0714126974344254
v -0.0175000000745058 0.025000000372529 0.0594642870128155
v 0.0175000000745058 0.025000000372529 0.0594642870128155
v 0.0175000000745058 0.025000000372529 0.0769642889499664
v 0.015825318172574 0.025000000372529 0.083214282989502
v 0.0112500004470348 0.025000000372529 0.0877896025776863
v 0.00499999988824129 0.025000000372529 0.0894642844796181
v -0.00466904789209366 0.025000000372529 0.0894642844796181
v -0.0063527780584991 0.025000000372529 0.0891722664237022
v -0.00783983338624239 0.025000000372529 0.0883303061127663
v -0.00895651243627071 0.025000000372529 0.0870367661118507
v -0.016787463799119 -0.194999992847443 0.0739851742982864
v -0.0171789918094873 -0.194999992847443 0.0731753781437874
v -0.0174190923571587 -0.194999992847443 0.0723085328936577
v -0.0175000000745058 -0.194999992847443 0.0714126974344254
v -0.0175000000745058 -0.224999994039536 0.0714126974344254
v -0.0174190923571587 -0.224999994039536 0.0723085328936577
v -0.0171789918094873 -0.224999994039536 0.0731753781437874
v -0.016787463799119 -0.224999994039536 0.0739851742982864
v -0.0175000000745058 -0.025000000372529 0.0714126974344254
v -0.0174190923571587 -0.025000000372529 0.0723085328936577
v -0.0171789918094873 -0.025000000372529 0.0731753781437874
v -0.016787463799119 -0.025000000372529 0.0739851742982864
v -0.00895651243627071 -0.025000000372529 0.0870367661118507
v -0.00783983338624239 -0.025000000372529 0.0883303061127663
v -0.0063527780584991 -0.025000000372529 0.0891722664237022
v -0.00466904789209366 -0.025000000372529 0.0894642844796181
v 0.00499999988824129 -0.025000000372529 0.0894642844796181
v 0.0112500004470348 -0.025000000372529 0.0877896025776863
v 0.015825318172574 -0.025000000372529 0.083214282989502
v 0.0175000000745058 -0.025000000372529 0.0769642889499664
v 0.0175000000745058 -0.025000000372529 0.0594642870128155
v -0.0175000000745058 -0.025000000372529 0.0594642870128155
v -0.016787463799119 0.194999992847443 0.0739851742982864
v -0.0171789918094873 0.194999992847443 0.0731753781437874
v -0.0174190923571587 0.194999992847443 0.0723085328936577
v -0.0175000000745058 0.194999992847443 0.0714126974344254
v -0.0175000000745058 0.194999992847443 0.0594642870128155
v 0.0175000000745058 0.194999992847443 0.0594642870128155
v 0.0175000000745058 0.194999992847443 0.0769642889499664
v 0.015825318172574 0.194999992847443 0.083214282989502
v 0.0112500004470348 0.194999992847443 0.0877896025776863
v 0.00499999988824129 0.194999992847443 0.0894642844796181
v -0.00466904789209366 0.194999992847443 0.0894642844796181
v -0.0063527780584991 0.194999992847443 0.0891722664237022
v -0.00783983338624239 0.194999992847443 0.0883303061127663
v -0.00895651243627071 0.194999992847443 0.0870367661118507
v 0.0175000000745058 0.144999995827675 0.0594642870128155
v 0.0175000000745058 0.194999992847443 0.0594642870128155
v -0.0175000000745058 0.194999992847443 0.0594642870128155
v -0.0175000000745058 0.144999995827675 0.0594642870128155
v -0.0175000000745058 0.144999995827675 0.0714126974344254
v -0.0174190923571587 0.144999995827675 0.0723085328936577
v -0.0171789918094873 0.144999995827675 0.0731753781437874
v -0.016787463799119 0.144999995827675 0.0739851742982864
v -0.00895651243627071 0.144999995827675 0.0870367661118507
v -0.00783983338624239 0.144999995827675 0.0883303061127663
v -0.0063527780584991 0.144999995827675 0.0891722664237022
v -0.00466904789209366 0.144999995827675 0.0894642844796181
v 0.00499999988824129 0.144999995827675 0.0894642844796181
v 0.0112500004470348 0.144999995827675 0.0877896025776863
v 0.015825318172574 0.144999995827675 0.083214282989502
v 0.0175000000745058 0.144999995827675 0.0769642889499664
v 0.0175000000745058 0.144999995827675 0.0594642870128155
v -0.0175000000745058 0.144999995827675 0.0594642870128155
v -0.00749999983236194 0.194999992847443 -0.0594642870128155
v -0.00749999983236194 0.224999994039536 -0.0294642858207226
v 0.0175000000745058 0.224999994039536 -0.0294642858207226
v 0.0175000000745058 0.194999992847443 -0.0594642870128155
v -0.00466904789209366 0.194999992847443 0.0894642844796181
v 0.00499999988824129 0.194999992847443 0.0894642844796181
v 0.00499999988824129 0.224999994039536 0.0894642844796181
v -0.00466904789209366 0.224999994039536 0.0894642844796181
v -0.00749999983236194 -0.144999995827675 -0.0769642889499664
v -0.00749999983236194 -0.144999995827675 -0.0594642870128155
v 0.0175000000745058 -0.144999995827675 -0.0594642870128155
v 0.0175000000745058 -0.144999995827675 -0.0769642889499664
v 0.015825318172574 -0.144999995827675 -0.083214282989502
v 0.0112500004470348 -0.144999995827675 -0.0877896025776863
v 0.00499999988824129 -0.144999995827675 -0.0894642844796181
v -0.00124999997206032 -0.144999995827675 -0.0877896025776863
v -0.00582531746476889 -0.144999995827675 -0.083214282989502
v -0.00749999983236194 -0.144999995827675 -0.0594642870128155
v -0.00749999983236194 -0.025000000372529 -0.0594642870128155
v 0.0175000000745058 -0.025000000372529 -0.0594642870128155
v 0.0175000000745058 -0.144999995827675 -0.0594642870128155
v -0.00749999983236194 -0.025000000372529 -0.0594642870128155
v -0.00749999983236194 -0.025000000372529 -0.0769642889499664
v -0.00582531746476889 -0.025000000372529 -0.083214282989502
v -0.00124999997206032 -0.025000000372529 -0.0877896025776863
v 0.00499999988824129 -0.025000000372529 -0.0894642844796181
v 0.0112500004470348 -0.025000000372529 -0.0877896025776863
v 0.015825318172574 -0.025000000372529 -0.083214282989502
v 0.0175000000745058 -0.025000000372529 -0.0769642889499664
v 0.0175000000745058 -0.025000000372529 -0.0594642870128155
v -0.016787463799119 -0.144999995827675 0.0739851742982864
v -0.0171789918094873 -0.144999995827675 0.0731753781437874
v -0.0174190923571587 -0.144999995827675 0.0723085328936577
v -0.0175000000745058 -0.144999995827675 0.0714126974344254
v -0.0175000000745058 -0.144999995827675 0.0594642870128155
v 0.0175000000745058 -0.144999995827675 0.0594642870128155
v 0.0175000000745058 -0.144999995827675 0.0769642889499664
v 0.015825318172574 -0.144999995827675 0.083214282989502
v 0.0112500004470348 -0.144999995827675 0.0877896025776863
v 0.00499999988824129 -0.144999995827675 0.0894642844796181
v -0.00466904789209366 -0.144999995827675 0.0894642844796181
v -0.0063527780584991 -0.144999995827675 0.0891722664237022
v -0.00783983338624239 -0.144999995827675 0.0883303061127663
v -0.00895651243627071 -0.144999995827675 0.0870367661118507
v 0.0175000000745058 -0.194999992847443 0.0594642870128155
v 0.0175000000745058 -0.144999995827675 0.0594642870128155
v -0.0175000000745058 -0.144999995827675 0.0594642870128155
v -0.0175000000745058 -0.194999992847443 0.0594642870128155
v -0.00749999983236194 -0.224999994039536 -0.0294642858207226
v -0.00749999983236194 -0.194999992847443 -0.0594642870128155
v 0.0175000000745058 -0.194999992847443 -0.0594642870128155
v 0.0175000000745058 -0.224999994039536 -0.0294642858207226
v -0.0175000000745058 -0.194999992847443 0.0714126974344254
v -0.0174190923571587 -0.194999992847443 0.0723085328936577
v -0.0171789918094873 -0.194999992847443 0.0731753781437874
v -0.016787463799119 -0.194999992847443 0.0739851742982864
v -0.00895651243627071 -0.194999992847443 0.0870367661118507
v -0.00783983338624239 -0.194999992847443 0.0883303061127663
v -0.0063527780584991 -0.194999992847443 0.0891722664237022
v -0.00466904789209366 -0.194999992847443 0.0894642844796181
v 0.00499999988824129 -0.194999992847443 0.0894642844796181
v 0.0112500004470348 -0.194999992847443 0.0877896025776863
v 0.015825318172574 -0.194999992847443 0.083214282989502
v 0.0175000000745058 -0.194999992847443 0.0769642889499664
v 0.0175000000745058 -0.194999992847443 0.0594642870128155
v -0.0175000000745058 -0.194999992847443 0.0594642870128155
v -0.00749999983236194 -0.194999992847443 -0.0594642870128155
v -0.00749999983236194 -0.194999992847443 -0.0769642889499664
v -0.00582531746476889 -0.194999992847443 -0.083214282989502
v -0.00124999997206032 -0.194999992847443 -0.0877896025776863
v 0.00499999988824129 -0.194999992847443 -0.0894642844796181
v 0.0112500004470348 -0.194999992847443 -0.0877896025776863
v 0.015825318172574 -0.194999992847443 -0.083214282989502
v 0.0175000000745058 -0.194999992847443 -0.0769642889499664
v 0.0175000000745058 -0.194999992847443 -0.0594642870128155
v 0.0175000000745058 0.144999995827675 -0.0769642889499664
v 0.0175000000745058 0.144999995827675 -0.0594642870128155
v -0.00749999983236194 0.144999995827675 -0.0594642870128155
v -0.00749999983236194 0.144999995827675 -0.0769642889499664
v -0.00582531746476889 0.144999995827675 -0.083214282989502
v -0.00124999997206032 0.144999995827675 -0.0877896025776863
v 0.00499999988824129 0.144999995827675 -0.0894642844796181
v 0.0112500004470348 0.144999995827675 -0.0877896025776863
v 0.015825318172574 0.144999995827675 -0.083214282989502
v 0.0175000000745058 0.025000000372529 -0.0594642870128155
v 0.0175000000745058 0.025000000372529 -0.0769642889499664
v 0.015825318172574 0.025000000372529 -0.083214282989502
v 0.0112500004470348 0.025000000372529 -0.0877896025776863
v 0.00499999988824129 0.025000000372529 -0.0894642844796181
v -0.00124999997206032 0.025000000372529 -0.0877896025776863
v -0.00582531746476889 0.025000000372529 -0.083214282989502
v -0.00749999983236194 0.025000000372529 -0.0769642889499664
v -0.00749999983236194 0.025000000372529 -0.0594642870128155
v 0.0175000000745058 0.144999995827675 -0.0594642870128155
v 0.0175000000745058 0.025000000372529 -0.0594642870128155
v -0.00749999983236194 0.025000000372529 -0.0594642870128155
v -0.00749999983236194 0.144999995827675 -0.0594642870128155
v -0.0175000000745058 -0.025000000372529 0.0714126974344254
v -0.0175000000745058 -0.025000000372529 0.0594642870128155
v -0.0175000000745058 0.025000000372529 0.0594642870128155
v -0.0175000000745058 0.025000000372529 0.0714126974344254
v -0.0175000000745058 0.144999995827675 0.0714126974344254
v -0.0175000000745058 0.144999995827675 0.0594642870128155
v -0.0175000000745058 0.194999992847443 0.0594642870128155
v -0.0175000000745058 0.194999992847443 0.0714126974344254
v -0.0175000000745058 0.224999994039536 0.0714126974344254
v -0.0175000000745058 0.224999994039536 -0.00641269935294986
v -0.0175000000745058 -0.224999994039536 -0.00641269935294986
v -0.0175000000745058 -0.224999994039536 0.0714126974344254
v -0.0175000000745058 -0.194999992847443 0.0714126974344254
v -0.0175000000745058 -0.194999992847443 0.0594642870128155
v -0.0175000000745058 -0.144999995827675 0.0594642870128155
v -0.0175000000745058 -0.144999995827675 0.0714126974344254
v -0.0175000000745058 0.194999992847443 0.0714126974344254
v -0.0174190923571587 0.194999992847443 0.0723085328936577
v -0.0171789918094873 0.194999992847443 0.0731753781437874
v -0.016787463799119 0.194999992847443 0.0739851742982864
v -0.016787463799119 0.224999994039536 0.0739851742982864
v -0.0171789918094873 0.224999994039536 0.0731753781437874
v -0.0174190923571587 0.224999994039536 0.0723085328936577
v -0.0175000000745058 0.224999994039536 0.0714126974344254
v -0.016787463799119 0.194999992847443 0.0739851742982864
v -0.00895651243627071 0.194999992847443 0.0870367661118507
v -0.00895651243627071 0.224999994039536 0.0870367661118507
v -0.016787463799119 0.224999994039536 0.0739851742982864
v 0.0175000000745058 -0.025000000372529 0.0594642870128155
v 0.0175000000745058 0.025000000372529 0.0594642870128155
v -0.0175000000745058 0.025000000372529 0.0594642870128155
v -0.0175000000745058 -0.025000000372529 0.0594642870128155
v -0.0175000000745058 0.025000000372529 0.0714126974344254
v -0.0174190923571587 0.025000000372529 0.0723085328936577
v -0.0171789918094873 0.025000000372529 0.0731753781437874
v -0.016787463799119 0.025000000372529 0.0739851742982864
v -0.016787463799119 0.144999995827675 0.0739851742982864
v -0.0171789918094873 0.144999995827675 0.0731753781437874
v -0.0174190923571587 0.144999995827675 0.0723085328936577
v -0.0175000000745058 0.144999995827675 0.0714126974344254
v -0.00895651243627071 -0.194999992847443 0.0870367661118507
v -0.016787463799119 -0.194999992847443 0.0739851742982864
v -0.016787463799119 -0.224999994039536 0.0739851742982864
v -0.00895651243627071 -0.224999994039536 0.0870367661118507
v -0.016787463799119 0.025000000372529 0.0739851742982864
v -0.00895651243627071 0.025000000372529 0.0870367661118507
v -0.00895651243627071 0.144999995827675 0.0870367661118507
v -0.016787463799119 0.144999995827675 0.0739851742982864
v -0.00895651243627071 0.194999992847443 0.0870367661118507
v -0.00783983338624239 0.194999992847443 0.0883303061127663
v -0.0063527780584991 0.194999992847443 0.0891722664237022
v -0.00466904789209366 0.194999992847443 0.0894642844796181
v -0.00466904789209366 0.224999994039536 0.0894642844796181
v -0.0063527780584991 0.224999994039536 0.0891722664237022
v -0.00783983338624239 0.224999994039536 0.0883303061127663
v -0.00895651243627071 0.224999994039536 0.0870367661118507
v -0.00466904789209366 -0.194999992847443 0.0894642844796181
v -0.0063527780584991 -0.194999992847443 0.0891722664237022
v -0.00783983338624239 -0.194999992847443 0.0883303061127663
v -0.00895651243627071 -0.194999992847443 0.0870367661118507
v -0.00895651243627071 -0.224999994039536 0.0870367661118507
v -0.00783983338624239 -0.224999994039536 0.0883303061127663
v -0.0063527780584991 -0.224999994039536 0.0891722664237022
v -0.00466904789209366 -0.224999994039536 0.0894642844796181
v -0.00895651243627071 0.025000000372529 0.0870367661118507
v -0.00783983338624239 0.025000000372529 0.0883303061127663
v -0.0063527780584991 0.025000000372529 0.0891722664237022
v -0.00466904789209366 0.025000000372529 0.0894642844796181
v -0.00466904789209366 0.144999995827675 0.0894642844796181
v -0.0063527780584991 0.144999995827675 0.0891722664237022
v -0.00783983338624239 0.144999995827675 0.0883303061127663
v -0.00895651243627071 0.144999995827675 0.0870367661118507
v -0.00749999983236194 0.194999992847443 -0.0769642889499664
v -0.00749999983236194 0.194999992847443 -0.0594642870128155
v 0.0175000000745058 0.194999992847443 -0.0594642870128155
v 0.0175000000745058 0.194999992847443 -0.0769642889499664
v 0.015825318172574 0.194999992847443 -0.083214282989502
v 0.0112500004470348 0.194999992847443 -0.0877896025776863
v 0.00499999988824129 0.194999992847443 -0.0894642844796181
v -0.00124999997206032 0.194999992847443 -0.0877896025776863
v -0.00582531746476889 0.194999992847443 -0.083214282989502
v 0.00499999988824129 -0.194999992847443 0.0894642844796181
v -0.00466904789209366 -0.194999992847443 0.0894642844796181
v -0.00466904789209366 -0.224999994039536 0.0894642844796181
v 0.00499999988824129 -0.224999994039536 0.0894642844796181
v -0.00466904789209366 0.025000000372529 0.0894642844796181
v 0.00499999988824129 0.025000000372529 0.0894642844796181
v 0.00499999988824129 0.144999995827675 0.0894642844796181
v -0.00466904789209366 0.144999995827675 0.0894642844796181
v 0.0175000000745058 -0.194999992847443 0.0769642889499664
v 0.015825318172574 -0.194999992847443 0.083214282989502
v 0.0112500004470348 -0.194999992847443 0.0877896025776863
v 0.00499999988824129 -0.194999992847443 0.0894642844796181
v 0.00499999988824129 -0.224999994039536 0.0894642844796181
v 0.0112500004470348 -0.224999994039536 0.0877896025776863
v 0.015825318172574 -0.224999994039536 0.083214282989502
v 0.0175000000745058 -0.224999994039536 0.0769642889499664
v 0.00499999988824129 0.194999992847443 0.0894642844796181
v 0.0112500004470348 0.194999992847443 0.0877896025776863
v 0.015825318172574 0.194999992847443 0.083214282989502
v 0.0175000000745058 0.194999992847443 0.0769642889499664
v 0.0175000000745058 0.224999994039536 0.0769642889499664
v 0.015825318172574 0.224999994039536 0.083214282989502
v 0.0112500004470348 0.224999994039536 0.0877896025776863
v 0.00499999988824129 0.224999994039536 0.0894642844796181
v 0.00499999988824129 0.025000000372529 0.0894642844796181
v 0.0112500004470348 0.025000000372529 0.0877896025776863
v 0.015825318172574 0.025000000372529 0.083214282989502
v 0.0175000000745058 0.025000000372529 0.0769642889499664
v 0.0175000000745058 0.144999995827675 0.0769642889499664
v 0.015825318172574 0.144999995827675 0.083214282989502
v 0.0112500004470348 0.144999995827675 0.0877896025776863
v 0.00499999988824129 0.144999995827675 0.0894642844796181
v 0.0175000000745058 -0.025000000372529 0.0769642889499664
v 0.015825318172574 -0.025000000372529 0.083214282989502
v 0.0112500004470348 -0.025000000372529 0.0877896025776863
v 0.00499999988824129 -0.025000000372529 0.0894642844796181
v 0.00499999988824129 -0.144999995827675 0.0894642844796181
v 0.0112500004470348 -0.144999995827675 0.0877896025776863
v 0.015825318172574 -0.144999995827675 0.083214282989502
v 0.0175000000745058 -0.144999995827675 0.0769642889499664
v -0.00749999983236194 -0.224999994039536 -0.0294642858207226
v 0.0175000000745058 -0.224999994039536 -0.0294642858207226
v 0.0175000000745058 -0.224999994039536 0.0769642889499664
v 0.015825318172574 -0.224999994039536 0.083214282989502
v 0.0112500004470348 -0.224999994039536 0.0877896025776863
v 0.00499999988824129 -0.224999994039536 0.0894642844796181
v -0.00466904789209366 -0.224999994039536 0.0894642844796181
v -0.0063527780584991 -0.224999994039536 0.0891722664237022
v -0.00783983338624239 -0.224999994039536 0.0883303061127663
v -0.00895651243627071 -0.224999994039536 0.0870367661118507
v -0.016787463799119 -0.224999994039536 0.0739851742982864
v -0.0171789918094873 -0.224999994039536 0.0731753781437874
v -0.0174190923571587 -0.224999994039536 0.0723085328936577
v -0.0175000000745058 -0.224999994039536 0.0714126974344254
v -0.0175000000745058 -0.224999994039536 -0.00641269935294986
v -0.0174190923571587 -0.224999994039536 -0.00730853481218219
v -0.0171789918094873 -0.224999994039536 -0.00817537866532803
v -0.016787463799119 -0.224999994039536 -0.0089851776137948
v -0.00821253564208746 -0.224999994039536 -0.0232767276465893
v -0.00782100856304169 -0.224999994039536 -0.0240865256637335
v -0.00758090661838651 -0.224999994039536 -0.024953369051218
v -0.00749999983236194 -0.224999994039536 -0.0258492063730955
v 0.0175000000745058 -0.025000000372529 -0.0769642889499664
v 0.015825318172574 -0.025000000372529 -0.083214282989502
v 0.0112500004470348 -0.025000000372529 -0.0877896025776863
v 0.00499999988824129 -0.025000000372529 -0.0894642844796181
v -0.00124999997206032 -0.025000000372529 -0.0877896025776863
v -0.00582531746476889 -0.025000000372529 -0.083214282989502
v -0.00749999983236194 -0.025000000372529 -0.0769642889499664
v -0.00749999983236194 0.025000000372529 -0.0769642889499664
v -0.00582531746476889 0.025000000372529 -0.083214282989502
v -0.00124999997206032 0.025000000372529 -0.0877896025776863
v 0.00499999988824129 0.025000000372529 -0.0894642844796181
v 0.0112500004470348 0.025000000372529 -0.0877896025776863
v 0.015825318172574 0.025000000372529 -0.083214282989502
v 0.0175000000745058 0.025000000372529 -0.0769642889499664
v -0.00749999983236194 -0.144999995827675 -0.0769642889499664
v -0.00582531746476889 -0.144999995827675 -0.083214282989502
v -0.00124999997206032 -0.144999995827675 -0.0877896025776863
v 0.00499999988824129 -0.144999995827675 -0.0894642844796181
v 0.0112500004470348 -0.144999995827675 -0.0877896025776863
v 0.015825318172574 -0.144999995827675 -0.083214282989502
v 0.0175000000745058 -0.144999995827675 -0.0769642889499664
v 0.0175000000745058 -0.194999992847443 -0.0769642889499664
v 0.015825318172574 -0.194999992847443 -0.083214282989502
v 0.0112500004470348 -0.194999992847443 -0.0877896025776863
v 0.00499999988824129 -0.194999992847443 -0.0894642844796181
v -0.00124999997206032 -0.194999992847443 -0.0877896025776863
v -0.00582531746476889 -0.194999992847443 -0.083214282989502
v -0.00749999983236194 -0.194999992847443 -0.0769642889499664
v -0.00749999983236194 0.194999992847443 -0.0594642870128155
v -0.00749999983236194 0.194999992847443 -0.0769642889499664
v -0.00749999983236194 0.144999995827675 -0.0769642889499664
v -0.00749999983236194 0.144999995827675 -0.0594642870128155
v -0.00749999983236194 0.025000000372529 -0.0594642870128155
v -0.00749999983236194 0.025000000372529 -0.0769642889499664
v -0.00749999983236194 -0.025000000372529 -0.0769642889499664
v -0.00749999983236194 -0.025000000372529 -0.0594642870128155
v -0.00749999983236194 -0.144999995827675 -0.0594642870128155
v -0.00749999983236194 -0.144999995827675 -0.0769642889499664
v -0.00749999983236194 -0.194999992847443 -0.0769642889499664
v -0.00749999983236194 -0.194999992847443 -0.0594642870128155
v -0.00749999983236194 -0.224999994039536 -0.0294642858207226
v -0.00749999983236194 -0.224999994039536 -0.0258492063730955
v -0.00749999983236194 0.224999994039536 -0.0258492063730955
v -0.00749999983236194 0.224999994039536 -0.0294642858207226
v -0.00749999983236194 0.194999992847443 -0.0769642889499664
v -0.00582531746476889 0.194999992847443 -0.083214282989502
v -0.00124999997206032 0.194999992847443 -0.0877896025776863
v 0.00499999988824129 0.194999992847443 -0.0894642844796181
v 0.0112500004470348 0.194999992847443 -0.0877896025776863
v 0.015825318172574 0.194999992847443 -0.083214282989502
v 0.0175000000745058 0.194999992847443 -0.0769642889499664
v 0.0175000000745058 0.144999995827675 -0.0769642889499664
v 0.015825318172574 0.144999995827675 -0.083214282989502
v 0.0112500004470348 0.144999995827675 -0.0877896025776863
v 0.00499999988824129 0.144999995827675 -0.0894642844796181
v -0.00124999997206032 0.144999995827675 -0.0877896025776863
v -0.00582531746476889 0.144999995827675 -0.083214282989502
v -0.00749999983236194 0.144999995827675 -0.0769642889499664
v 0.0175000000745058 -0.025000000372529 0.0594642870128155
v 0.0175000000745058 -0.025000000372529 0.0769642889499664
v 0.0175000000745058 -0.144999995827675 0.0769642889499664
v 0.0175000000745058 -0.144999995827675 0.0594642870128155
v 0.0175000000745058 -0.194999992847443 0.0594642870128155
v 0.0175000000745058 -0.194999992847443 0.0769642889499664
v 0.0175000000745058 -0.224999994039536 0.0769642889499664
v 0.0175000000745058 -0.224999994039536 -0.0294642858207226
v 0.0175000000745058 -0.194999992847443 -0.0594642870128155
v 0.0175000000745058 -0.194999992847443 -0.0769642889499664
v 0.0175000000745058 -0.144999995827675 -0.0769642889499664
v 0.0175000000745058 -0.144999995827675 -0.0594642870128155
v 0.0175000000745058 -0.025000000372529 -0.0594642870128155
v 0.0175000000745058 -0.025000000372529 -0.0769642889499664
v 0.0175000000745058 0.025000000372529 -0.0769642889499664
v 0.0175000000745058 0.025000000372529 -0.0594642870128155
v 0.0175000000745058 0.144999995827675 -0.0594642870128155
v 0.0175000000745058 0.144999995827675 -0.0769642889499664
v 0.0175000000745058 0.194999992847443 -0.0769642889499664
v 0.0175000000745058 0.194999992847443 -0.0594642870128155
v 0.0175000000745058 0.224999994039536 -0.0294642858207226
v 0.0175000000745058 0.224999994039536 0.0769642889499664
v 0.0175000000745058 0.194999992847443 0.0769642889499664
v 0.0175000000745058 0.194999992847443 0.0594642870128155
v 0.0175000000745058 0.144999995827675 0.0594642870128155
v 0.0175000000745058 0.144999995827675 0.0769642889499664
v 0.0175000000745058 0.025000000372529 0.0769642889499664
v 0.0175000000745058 0.025000000372529 0.0594642870128155
v 0.00499999988824129 -0.025000000372529 0.0894642844796181
v -0.00466904789209366 -0.025000000372529 0.0894642844796181
v -0.00466904789209366 -0.144999995827675 0.0894642844796181
v 0.00499999988824129 -0.144999995827675 0.0894642844796181
v -0.00466904789209366 -0.025000000372529 0.0894642844796181
v -0.0063527780584991 -0.025000000372529 0.0891722664237022
v -0.00783983338624239 -0.025000000372529 0.0883303061127663
v -0.00895651243627071 -0.025000000372529 0.0870367661118507
v -0.00895651243627071 -0.144999995827675 0.0870367661118507
v -0.00783983338624239 -0.144999995827675 0.0883303061127663
v -0.0063527780584991 -0.144999995827675 0.0891722664237022
v -0.00466904789209366 -0.144999995827675 0.0894642844796181
v -0.00895651243627071 -0.025000000372529 0.0870367661118507
v -0.016787463799119 -0.025000000372529 0.0739851742982864
v -0.016787463799119 -0.144999995827675 0.0739851742982864
v -0.00895651243627071 -0.144999995827675 0.0870367661118507
v -0.016787463799119 -0.025000000372529 0.0739851742982864
v -0.0171789918094873 -0.025000000372529 0.0731753781437874
v -0.0174190923571587 -0.025000000372529 0.0723085328936577
v -0.0175000000745058 -0.025000000372529 0.0714126974344254
v -0.0175000000745058 -0.144999995827675 0.0714126974344254
v -0.0174190923571587 -0.144999995827675 0.0723085328936577
v -0.0171789918094873 -0.144999995827675 0.0731753781437874
v -0.016787463799119 -0.144999995827675 0.0739851742982864
v -0.0175000000745058 -0.224999994039536 -0.00641269935294986
v -0.0175000000745058 0.224999994039536 -0.00641269935294986
v -0.0174190923571587 0.224999994039536 -0.00730853481218219
v -0.0171789918094873 0.224999994039536 -0.00817537866532803
v -0.016787463799119 0.224999994039536 -0.0089851776137948
v -0.016787463799119 -0.224999994039536 -0.0089851776137948
v -0.0171789918094873 -0.224999994039536 -0.00817537866532803
v -0.0174190923571587 -0.224999994039536 -0.00730853481218219
v -0.016787463799119 -0.224999994039536 -0.0089851776137948
v -0.016787463799119 0.224999994039536 -0.0089851776137948
v -0.00821253564208746 0.224999994039536 -0.0232767276465893
v -0.00821253564208746 -0.224999994039536 -0.0232767276465893
v -0.00821253564208746 -0.224999994039536 -0.0232767276465893
v -0.00821253564208746 0.224999994039536 -0.0232767276465893
v -0.00782100856304169 0.224999994039536 -0.0240865256637335
v -0.00758090661838651 0.224999994039536 -0.024953369051218
v -0.00749999983236194 0.224999994039536 -0.0258492063730955
v -0.00749999983236194 -0.224999994039536 -0.0258492063730955
v -0.00758090661838651 -0.224999994039536 -0.024953369051218
v -0.00782100856304169 -0.224999994039536 -0.0240865256637335
v 0.0175000000745058 0.224999994039536 -0.0294642858207226
v -0.00749999983236194 0.224999994039536 -0.0294642858207226
v -0.00749999983236194 0.224999994039536 -0.0258492063730955
v -0.00758090661838651 0.224999994039536 -0.024953369051218
v -0.00782100856304169 0.224999994039536 -0.0240865256637335
v -0.00821253564208746 0.224999994039536 -0.0232767276465893
v -0.016787463799119 0.224999994039536 -0.0089851776137948
v -0.0171789918094873 0.224999994039536 -0.00817537866532803
v -0.0174190923571587 0.224999994039536 -0.00730853481218219
v -0.0175000000745058 0.224999994039536 -0.00641269935294986
v -0.0175000000745058 0.224999994039536 0.0714126974344254
v -0.0174190923571587 0.224999994039536 0.0723085328936577
v -0.0171789918094873 0.224999994039536 0.0731753781437874
v -0.016787463799119 0.224999994039536 0.0739851742982864
v -0.00895651243627071 0.224999994039536 0.0870367661118507
v -0.00783983338624239 0.224999994039536 0.0883303061127663
v -0.0063527780584991 0.224999994039536 0.0891722664237022
v -0.00466904789209366 0.224999994039536 0.0894642844796181
v 0.00499999988824129 0.224999994039536 0.0894642844796181
v 0.0112500004470348 0.224999994039536 0.0877896025776863
v 0.015825318172574 0.224999994039536 0.083214282989502
v 0.0175000000745058 0.224999994039536 0.0769642889499664
vn 0 -1 0
vn 0 -1 0
vn 0 -1 0
vn 0 -1 0
vn 0 -1 0
vn 0 -1 0
vn 0 -1 0
vn 0 -1 0
vn 0 -1 0
vn 0 -1 0
vn 0 -1 0
vn 0 -1 0
vn 0 -1 0
vn 0 -1 0
vn -0.857492936231011 0 0.514495737896748
vn -0.935798268706236 0 0.352535956019257
vn -0.983818647918783 0 0.179167151027353
vn -1 0 0
vn -1 0 -6.66133814775094E-14
vn -0.983818647918783 0 0.179167151027353
vn -0.935798268706236 0 0.352535956019257
vn -0.857492936231011 0 0.514495737896748
vn 0 1 0
vn 0 1 0
vn 0 1 0
vn 0 1 0
vn 0 1 0
vn 0 1 0
vn 0 1 0
vn 0 1 0
vn 0 1 0
vn 0 1 0
vn 0 1 0
vn 0 1 0
vn 0 1 0
vn 0 1 0
vn 0 -1 0
vn 0 -1 0
vn 0 -1 0
vn 0 -1 0
vn 0 -1 0
vn 0 -1 0
vn 0 -1 0
vn 0 -1 0
vn 0 -1 0
vn 0 -1 0
vn 0 -1 0
vn 0 -1 0
vn 0 -1 0
vn 0 -1 0
vn -5.8516233545703E-16 3.55271373174006E-16 1
vn -5.8516233545703E-16 3.55271373174006E-16 1
vn -5.8516233545703E-16 3.55271373174006E-16 1
vn -5.8516233545703E-16 3.55271373174006E-16 1
vn 0 1 0
vn 0 1 0
vn 0 1 0
vn 0 1 0
vn 0 1 0
vn 0 1 0
vn 0 1 0
vn 0 1 0
vn 0 1 0
vn 0 1 0
vn 0 1 0
vn 0 1 0
vn 0 1 0
vn 0 1 0
vn 4.13772266622907E-16 0.707106781186547 -0.707106781186547
vn 4.13772266622907E-16 0.707106781186547 -0.707106781186547
vn 4.13772266622907E-16 0.707106781186547 -0.707106781186547
vn 4.13772266622907E-16 0.707106781186547 -0.707106781186547
vn 1.60814287233912E-16 0 1
vn 1.60814287233912E-16 0 1
vn 1.60814287233912E-16 0 1
vn 1.60814287233912E-16 0 1
vn 0 1 0
vn 0 1 0
vn 0 1 0
vn 0 1 0
vn 0 1 0
vn 0 1 0
vn 0 1 0
vn 0 1 0
vn 0 1 0
vn 5.8516233545703E-16 -2.75641567574613E-16 -1
vn 5.8516233545703E-16 -2.75641567574613E-16 -1
vn 5.8516233545703E-16 -2.75641567574613E-16 -1
vn 5.8516233545703E-16 -2.75641567574613E-16 -1
vn 0 -1 0
vn 0 -1 0
vn 0 -1 0
vn 0 -1 0
vn 0 -1 0
vn 0 -1 0
vn 0 -1 0
vn 0 -1 0
vn 0 -1 0
vn 0 -1 0
vn 0 -1 0
vn 0 -1 0
vn 0 -1 0
vn 0 -1 0
vn 0 -1 0
vn 0 -1 0
vn 0 -1 0
vn 0 -1 0
vn 0 -1 0
vn 0 -1 0
vn 0 -1 0
vn 0 -1 0
vn 0 -1 0
vn -5.8516233545703E-16 1.77635686587003E-16 1
vn -5.8516233545703E-16 1.77635686587003E-16 1
vn -5.8516233545703E-16 1.77635686587003E-16 1
vn -5.8516233545703E-16 1.77635686587003E-16 1
vn 4.13772266622907E-16 -0.707106781186547 -0.707106781186547
vn 4.13772266622907E-16 -0.707106781186547 -0.707106781186547
vn 4.13772266622907E-16 -0.707106781186547 -0.707106781186547
vn 4.13772266622907E-16 -0.707106781186547 -0.707106781186547
vn 0 1 0
vn 0 1 0
vn 0 1 0
vn 0 1 0
vn 0 1 0
vn 0 1 0
vn 0 1 0
vn 0 1 0
vn 0 1 0
vn 0 1 0
vn 0 1 0
vn 0 1 0
vn 0 1 0
vn 0 1 0
vn 0 -1 0
vn 0 -1 0
vn 0 -1 0
vn 0 -1 0
vn 0 -1 0
vn 0 -1 0
vn 0 -1 0
vn 0 -1 0
vn 0 -1 0
vn 0 -1 0
vn 0 -1 0
vn 0 -1 0
vn 0 -1 0
vn 0 -1 0
vn 0 -1 0
vn 0 -1 0
vn 0 -1 0
vn 0 -1 0
vn 0 1 0
vn 0 1 0
vn 0 1 0
vn 0 1 0
vn 0 1 0
vn 0 1 0
vn 0 1 0
vn 0 1 0
vn 0 1 0
vn 5.8516233545703E-16 -2.75641567574613E-16 -1
vn 5.8516233545703E-16 -2.75641567574613E-16 -1
vn 5.8516233545703E-16 -2.75641567574613E-16 -1
vn 5.8516233545703E-16 -2.75641567574613E-16 -1
vn -1 0 -5.23932653040621E-16
vn -1 0 -5.23932653040621E-16
vn -1 0 -5.23932653040621E-16
vn -1 0 -5.23932653040621E-16
vn -1 0 -5.23932653040621E-16
vn -1 0 -5.23932653040621E-16
vn -1 0 -5.23932653040621E-16
vn -1 0 -5.23932653040621E-16
vn -1 0 -5.23932653040621E-16
vn -1 0 -5.23932653040621E-16
vn -1 0 -5.23932653040621E-16
vn -1 0 -5.23932653040621E-16
vn -1 0 -5.23932653040621E-16
vn -1 0 -5.23932653040621E-16
vn -1 0 -5.23932653040621E-16
vn -1 0 -5.23932653040621E-16
vn -1 0 0
vn -0.983818647918783 0 0.179167151027353
vn -0.935798268706236 0 0.352535956019257
vn -0.857492936231011 0 0.514495737896748
vn -0.857492936231011 0 0.514495737896748
vn -0.935798268706236 0 0.352535956019257
vn -0.983818647918783 0 0.179167151027353
vn -1 0 -6.66133814775094E-14
vn -0.857492936231011 0 0.514495737896748
vn -0.857492936231011 0 0.514495737896748
vn -0.857492936231011 0 0.514495737896748
vn -0.857492936231011 0 0.514495737896748
vn -5.8516233545703E-16 3.55271373174006E-16 1
vn -5.8516233545703E-16 3.55271373174006E-16 1
vn -5.8516233545703E-16 3.55271373174006E-16 1
vn -5.8516233545703E-16 3.55271373174006E-16 1
vn -1 0 0
vn -0.983818647918783 0 0.179167151027353
vn -0.935798268706236 0 0.352535956019257
vn -0.857492936231011 0 0.514495737896748
vn -0.857492936231011 0 0.514495737896748
vn -0.935798268706236 0 0.352535956019257
vn -0.983818647918783 0 0.179167151027353
vn -1 0 0
vn -0.857492936231011 0 0.514495737896748
vn -0.857492936231011 0 0.514495737896748
vn -0.857492936231011 0 0.514495737896748
vn -0.857492936231011 0 0.514495737896748
vn -0.857492936231011 0 0.514495737896748
vn -0.857492936231011 0 0.514495737896748
vn -0.857492936231011 0 0.514495737896748
vn -0.857492936231011 0 0.514495737896748
vn -0.857492936231011 0 0.514495737896748
vn -0.634157120953914 0 0.773204207142876
vn -0.336746042197714 0 0.941595509262961
vn 1.73472347597681E-16 0 1
vn 5.56846235788555E-14 0 1
vn -0.336746042197714 0 0.941595509262961
vn -0.634157120953914 0 0.773204207142876
vn -0.857492936231011 0 0.514495737896748
vn 1.73472347597681E-16 0 1
vn -0.336746042197714 0 0.941595509262961
vn -0.634157120953914 0 0.773204207142876
vn -0.857492936231011 0 0.514495737896748
vn -0.857492936231011 0 0.514495737896748
vn -0.634157120953914 0 0.773204207142876
vn -0.336746042197714 0 0.941595509262961
vn 5.56846235788555E-14 0 1
vn -0.857492936231011 0 0.514495737896748
vn -0.634157120953914 0 0.773204207142876
vn -0.336746042197714 0 0.941595509262961
vn 1.73472347597681E-16 0 1
vn 1.73472347597681E-16 0 1
vn -0.336746042197714 0 0.941595509262961
vn -0.634157120953914 0 0.773204207142876
vn -0.857492936231011 0 0.514495737896748
vn 0 1 0
vn 0 1 0
vn 0 1 0
vn 0 1 0
vn 0 1 0
vn 0 1 0
vn 0 1 0
vn 0 1 0
vn 0 1 0
vn 1.60814287233912E-16 0 1
vn 1.60814287233912E-16 0 1
vn 1.60814287233912E-16 0 1
vn 1.60814287233912E-16 0 1
vn 1.60814287233912E-16 0 1
vn 1.60814287233912E-16 0 1
vn 1.60814287233912E-16 0 1
vn 1.60814287233912E-16 0 1
vn 1 0 0
vn 0.866025399898532 0 0.500000006730587
vn 0.500000006730587 0 0.866025399898532
vn 2.08166817117217E-16 0 1
vn 2.08166817117217E-16 0 1
vn 0.500000006730587 0 0.866025399898532
vn 0.866025399898532 0 0.500000006730587
vn 1 0 0
vn 2.08166817117217E-16 0 1
vn 0.500000006730587 0 0.866025399898532
vn 0.866025399898532 0 0.500000006730587
vn 1 0 0
vn 1 0 0
vn 0.866025399898532 0 0.500000006730587
vn 0.500000006730587 0 0.866025399898532
vn 2.08166817117217E-16 0 1
vn 2.08166817117217E-16 0 1
vn 0.500000006730587 0 0.866025399898532
vn 0.866025399898532 0 0.500000006730587
vn 1 0 0
vn 1 0 0
vn 0.866025399898532 0 0.500000006730587
vn 0.500000006730587 0 0.866025399898532
vn 2.08166817117217E-16 0 1
vn 1 0 0
vn 0.866025399898532 0 0.500000006730587
vn 0.500000006730587 0 0.866025399898532
vn 2.08166817117217E-16 0 1
vn 2.08166817117217E-16 0 1
vn 0.500000006730587 0 0.866025399898532
vn 0.866025399898532 0 0.500000006730587
vn 1 0 0
vn 2.65825822297212E-32 -1 1.65299869320106E-16
vn 2.65825822297212E-32 -1 1.65299869320106E-16
vn 2.65825822297212E-32 -1 1.65299869320106E-16
vn 2.65825822297212E-32 -1 1.65299869320106E-16
vn 2.65825822297212E-32 -1 1.65299869320106E-16
vn 2.65825822297212E-32 -1 1.65299869320106E-16
vn 2.65825822297212E-32 -1 1.65299869320106E-16
vn 2.65825822297212E-32 -1 1.65299869320106E-16
vn 2.65825822297212E-32 -1 1.65299869320106E-16
vn 2.65825822297212E-32 -1 1.65299869320106E-16
vn 2.65825822297212E-32 -1 1.65299869320106E-16
vn 2.65825822297212E-32 -1 1.65299869320106E-16
vn 2.65825822297212E-32 -1 1.65299869320106E-16
vn 2.65825822297212E-32 -1 1.65299869320106E-16
vn 2.65825822297212E-32 -1 1.65299869320106E-16
vn 2.65825822297212E-32 -1 1.65299869320106E-16
vn 2.65825822297212E-32 -1 1.65299869320106E-16
vn 2.65825822297212E-32 -1 1.65299869320106E-16
vn 2.65825822297212E-32 -1 1.65299869320106E-16
vn 2.65825822297212E-32 -1 1.65299869320106E-16
vn 2.65825822297212E-32 -1 1.65299869320106E-16
vn 2.65825822297212E-32 -1 1.65299869320106E-16
vn 1 0 0
vn 0.866025399898532 0 -0.500000006730587
vn 0.500000006730587 0 -0.866025399898532
vn -6.93889390390723E-17 0 -1
vn -0.500000006730587 0 -0.866025399898532
vn -0.866025399898532 0 -0.500000006730587
vn -1 0 0
vn -1 0 0
vn -0.866025399898532 0 -0.500000006730587
vn -0.500000006730587 0 -0.866025399898532
vn -6.93889390390723E-17 0 -1
vn 0.500000006730587 0 -0.866025399898532
vn 0.866025399898532 0 -0.500000006730587
vn 1 0 0
vn -1 0 0
vn -0.866025399898532 0 -0.500000006730587
vn -0.500000006730587 0 -0.866025399898532
vn -6.93889390390723E-17 0 -1
vn 0.500000006730587 0 -0.866025399898532
vn 0.866025399898532 0 -0.500000006730587
vn 1 0 0
vn 1 0 0
vn 0.866025399898532 0 -0.500000006730587
vn 0.500000006730587 0 -0.866025399898532
vn -6.93889390390723E-17 0 -1
vn -0.500000006730587 0 -0.866025399898532
vn -0.866025399898532 0 -0.500000006730587
vn -1 0 0
vn -1 0 1.60814287233912E-16
vn -1 0 1.60814287233912E-16
vn -1 0 1.60814287233912E-16
vn -1 0 1.60814287233912E-16
vn -1 0 1.60814287233912E-16
vn -1 0 1.60814287233912E-16
vn -1 0 1.60814287233912E-16
vn -1 0 1.60814287233912E-16
vn -1 0 1.60814287233912E-16
vn -1 0 1.60814287233912E-16
vn -1 0 1.60814287233912E-16
vn -1 0 1.60814287233912E-16
vn -1 0 1.60814287233912E-16
vn -1 0 1.60814287233912E-16
vn -1 0 1.60814287233912E-16
vn -1 0 1.60814287233912E-16
vn -1 0 0
vn -0.866025399898532 0 -0.500000006730587
vn -0.500000006730587 0 -0.866025399898532
vn -6.93889390390723E-17 0 -1
vn 0.500000006730587 0 -0.866025399898532
vn 0.866025399898532 0 -0.500000006730587
vn 1 0 0
vn 1 0 0
vn 0.866025399898532 0 -0.500000006730587
vn 0.500000006730587 0 -0.866025399898532
vn -6.93889390390723E-17 0 -1
vn -0.500000006730587 0 -0.866025399898532
vn -0.866025399898532 0 -0.500000006730587
vn -1 0 0
vn 1 0 -1.60814287233912E-16
vn 1 0 -1.60814287233912E-16
vn 1 0 -1.60814287233912E-16
vn 1 0 -1.60814287233912E-16
vn 1 0 -1.60814287233912E-16
vn 1 0 -1.60814287233912E-16
vn 1 0 -1.60814287233912E-16
vn 1 0 -1.60814287233912E-16
vn 1 0 -1.60814287233912E-16
vn 1 0 -1.60814287233912E-16
vn 1 0 -1.60814287233912E-16
vn 1 0 -1.60814287233912E-16
vn 1 0 -1.60814287233912E-16
vn 1 0 -1.60814287233912E-16
vn 1 0 -1.60814287233912E-16
vn 1 0 -1.60814287233912E-16
vn 1 0 -1.60814287233912E-16
vn 1 0 -1.60814287233912E-16
vn 1 0 -1.60814287233912E-16
vn 1 0 -1.60814287233912E-16
vn 1 0 -1.60814287233912E-16
vn 1 0 -1.60814287233912E-16
vn 1 0 -1.60814287233912E-16
vn 1 0 -1.60814287233912E-16
vn 1 0 -1.60814287233912E-16
vn 1 0 -1.60814287233912E-16
vn 1 0 -1.60814287233912E-16
vn 1 0 -1.60814287233912E-16
vn 1.60814287233912E-16 0 1
vn 1.60814287233912E-16 0 1
vn 1.60814287233912E-16 0 1
vn 1.60814287233912E-16 0 1
vn 1.73472347597681E-16 0 1
vn -0.336746042197714 0 0.941595509262961
vn -0.634157120953914 0 0.773204207142876
vn -0.857492936231011 0 0.514495737896748
vn -0.857492936231011 0 0.514495737896748
vn -0.634157120953914 0 0.773204207142876
vn -0.336746042197714 0 0.941595509262961
vn 1.73472347597681E-16 0 1
vn -0.857492936231011 0 0.514495737896748
vn -0.857492936231011 0 0.514495737896748
vn -0.857492936231011 0 0.514495737896748
vn -0.857492936231011 0 0.514495737896748
vn -0.857492936231011 0 0.514495737896748
vn -0.935798268706236 0 0.352535956019257
vn -0.983818647918783 0 0.179167151027353
vn -1 0 0
vn -1 0 0
vn -0.983818647918783 0 0.179167151027353
vn -0.935798268706236 0 0.352535956019257
vn -0.857492936231011 0 0.514495737896748
vn -1 0 6.67868538251071E-14
vn -1 0 6.67868538251071E-14
vn -0.983818647918783 0 -0.179167151027353
vn -0.935798268706236 0 -0.352535956019257
vn -0.857492936231011 0 -0.514495737896748
vn -0.857492936231011 0 -0.514495737896748
vn -0.935798268706236 0 -0.352535956019257
vn -0.983818647918783 0 -0.179167151027353
vn -0.857492936231011 0 -0.514495737896748
vn -0.857492936231011 0 -0.514495737896748
vn -0.857492936231011 0 -0.514495737896748
vn -0.857492936231011 0 -0.514495737896748
vn -0.857492936231011 0 -0.514495737896748
vn -0.857492936231011 0 -0.514495737896748
vn -0.935798268706236 0 -0.352535956019257
vn -0.983818647918783 0 -0.179167151027353
vn -1 0 6.73072708679001E-14
vn -1 0 6.73072708679001E-14
vn -0.983818647918783 0 -0.179167151027353
vn -0.935798268706236 0 -0.352535956019257
vn -2.65825822297212E-32 1 -1.65299869320106E-16
vn -2.65825822297212E-32 1 -1.65299869320106E-16
vn -2.65825822297212E-32 1 -1.65299869320106E-16
vn -2.65825822297212E-32 1 -1.65299869320106E-16
vn -2.65825822297212E-32 1 -1.65299869320106E-16
vn -2.65825822297212E-32 1 -1.65299869320106E-16
vn -2.65825822297212E-32 1 -1.65299869320106E-16
vn -2.65825822297212E-32 1 -1.65299869320106E-16
vn -2.65825822297212E-32 1 -1.65299869320106E-16
vn -2.65825822297212E-32 1 -1.65299869320106E-16
vn -2.65825822297212E-32 1 -1.65299869320106E-16
vn -2.65825822297212E-32 1 -1.65299869320106E-16
vn -2.65825822297212E-32 1 -1.65299869320106E-16
vn -2.65825822297212E-32 1 -1.65299869320106E-16
vn -2.65825822297212E-32 1 -1.65299869320106E-16
vn -2.65825822297212E-32 1 -1.65299869320106E-16
vn -2.65825822297212E-32 1 -1.65299869320106E-16
vn -2.65825822297212E-32 1 -1.65299869320106E-16
vn -2.65825822297212E-32 1 -1.65299869320106E-16
vn -2.65825822297212E-32 1 -1.65299869320106E-16
vn -2.65825822297212E-32 1 -1.65299869320106E-16
vn -2.65825822297212E-32 1 -1.65299869320106E-16
vt 0.0145208919420838 0.000712535344064236
vt 0.0137110929936171 0.00032100867247209
vt 0.0128442496061325 8.090675692074E-05
vt 0.0119484132155776 6.26016408716664E-18
vt 0 0
vt -1.83376429225962E-17 0.0350000001490116
vt 0.0175000000745058 0.0350000001490116
vt 0.0237499997019768 0.0333253182470798
vt 0.028325317427516 0.0287500005215406
vt 0.0299999993294477 0.0225000008940697
vt 0.0299999993294477 0.0128309521824121
vt 0.0297079775482416 0.0111472215503454
vt 0.0288660209625959 0.00966016668826342
vt 0.0275724790990353 0.00854348763823509
vt 0.00270209740847349 -0.319999992847443
vt 0.00180139834992588 -0.319999992847443
vt 0.000900699174962938 -0.319999992847443
vt 2.83413015456332E-16 -0.319999992847443
vt -4.96538853137698E-17 -0.349999994039536
vt 0.000900699174962938 -0.349999994039536
vt 0.00180139834992588 -0.349999994039536
vt 0.00270209740847349 -0.349999994039536
vt 0.0180515870451927 1.48283126302277E-17
vt 0.0171557515859604 8.090675692074E-05
vt 0.0162889063358307 0.00032100867247209
vt 0.0154791073873639 0.000712535344064236
vt 0.00242752116173506 0.00854348763823509
vt 0.00113397883251309 0.00966016668826342
vt 0.000292022421490401 0.0111472215503454
vt 6.72255515445164E-18 0.0128309521824121
vt 1.17884850904607E-17 0.0225000008940697
vt 0.00167468248400837 0.0287500005215406
vt 0.00625000009313226 0.0333253182470798
vt 0.0125000001862645 0.0350000001490116
vt 0.0299999993294477 0.0350000001490116
vt 0.0299999993294477 8.56814854306107E-18
vt 0.0145208919420838 0.000712535344064236
vt 0.0137110929936171 0.00032100867247209
vt 0.0128442496061325 8.090675692074E-05
vt 0.0119484132155776 6.26016408716664E-18
vt 0 0
vt -1.83376429225962E-17 0.0350000001490116
vt 0.0175000000745058 0.0350000001490116
vt 0.0237499997019768 0.0333253182470798
vt 0.028325317427516 0.0287500005215406
vt 0.0299999993294477 0.0225000008940697
vt 0.0299999993294477 0.0128309521824121
vt 0.0297079775482416 0.0111472215503454
vt 0.0288660209625959 0.00966016668826342
vt 0.0275724790990353 0.00854348763823509
vt 6.51483948480667E-33 0.0350000001490116
vt 0.0500000007450581 0.0350000001490116
vt 0.0500000007450581 1.08765728033152E-33
vt 0 0
vt 0.0180515870451927 1.48283126302277E-17
vt 0.0171557515859604 8.090675692074E-05
vt 0.0162889063358307 0.00032100867247209
vt 0.0154791073873639 0.000712535344064236
vt 0.00242752116173506 0.00854348763823509
vt 0.00113397883251309 0.00966016668826342
vt 0.000292022421490401 0.0111472215503454
vt 6.72255515445164E-18 0.0128309521824121
vt 1.17884850904607E-17 0.0225000008940697
vt 0.00167468248400837 0.0287500005215406
vt 0.00625000009313226 0.0333253182470798
vt 0.0125000001862645 0.0350000001490116
vt 0.0299999993294477 0.0350000001490116
vt 0.0299999993294477 8.56814854306107E-18
vt 0.0424264073371887 0.00999999977648258
vt 6.15803292411533E-18 0.00999999977648258
vt 1.78732107871497E-17 0.0350000001490116
vt 0.0424264073371887 0.0350000001490116
vt -2.77555756156289E-16 0.0700000002980232
vt 0.00966904778033495 0.0700000002980232
vt 0.00966904778033495 0.100000001490116
vt 0 0.100000001490116
vt 0.0175000000745058 0.00999999977648258
vt 5.23932684473484E-18 0.00999999977648258
vt 1.83376429225962E-17 0.0350000001490116
vt 0.0175000000745058 0.0350000001490116
vt 0.0237499997019768 0.0333253182470798
vt 0.028325317427516 0.0287500005215406
vt 0.0299999993294477 0.0225000008940697
vt 0.028325317427516 0.0162499994039536
vt 0.0237499997019768 0.0116746826097369
vt 0.119999997317791 0.00999999977648258
vt -3.20465385811004E-32 0.00999999977648258
vt -3.56569783788388E-32 0.0350000001490116
vt 0.119999997317791 0.0350000001490116
vt 0.0299999993294477 0.00999999977648258
vt 0.0125000001862645 0.00999999977648258
vt 0.00625000009313226 0.0116746826097369
vt 0.00167468248400837 0.0162499994039536
vt -5.3421848513904E-17 0.0225000008940697
vt 0.00167468248400837 0.0287500005215406
vt 0.00625000009313226 0.0333253182470798
vt 0.0125000001862645 0.0350000001490116
vt 0.0299999993294477 0.0350000001490116
vt 0.0145208919420838 0.000712535344064236
vt 0.0137110929936171 0.00032100867247209
vt 0.0128442496061325 8.090675692074E-05
vt 0.0119484132155776 6.26016408716664E-18
vt 0 0
vt -1.83376429225962E-17 0.0350000001490116
vt 0.0175000000745058 0.0350000001490116
vt 0.0237499997019768 0.0333253182470798
vt 0.028325317427516 0.0287500005215406
vt 0.0299999993294477 0.0225000008940697
vt 0.0299999993294477 0.0128309521824121
vt 0.0297079775482416 0.0111472215503454
vt 0.0288660209625959 0.00966016668826342
vt 0.0275724790990353 0.00854348763823509
vt 3.25741974240333E-33 0.0350000001490116
vt 0.0500000007450581 0.0350000001490116
vt 0.0500000007450581 5.4382864016576E-34
vt 0 0
vt 0.0424264073371887 0.00999999977648258
vt -3.7047632926127E-18 0.00999999977648258
vt -1.29666723513251E-17 0.0350000001490116
vt 0.0424264073371887 0.0350000001490116
vt 0.0180515870451927 1.48283126302277E-17
vt 0.0171557515859604 8.090675692074E-05
vt 0.0162889063358307 0.00032100867247209
vt 0.0154791073873639 0.000712535344064236
vt 0.00242752116173506 0.00854348763823509
vt 0.00113397883251309 0.00966016668826342
vt 0.000292022421490401 0.0111472215503454
vt 6.72255515445164E-18 0.0128309521824121
vt 1.17884850904607E-17 0.0225000008940697
vt 0.00167468248400837 0.0287500005215406
vt 0.00625000009313226 0.0333253182470798
vt 0.0125000001862645 0.0350000001490116
vt 0.0299999993294477 0.0350000001490116
vt 0.0299999993294477 8.56814854306107E-18
vt 0.0299999993294477 0.00999999977648258
vt 0.0125000001862645 0.00999999977648258
vt 0.00625000009313226 0.0116746826097369
vt 0.00167468248400837 0.0162499994039536
vt -5.3421848513904E-17 0.0225000008940697
vt 0.00167468248400837 0.0287500005215406
vt 0.00625000009313226 0.0333253182470798
vt 0.0125000001862645 0.0350000001490116
vt 0.0299999993294477 0.0350000001490116
vt 0.0125000001862645 0.0350000001490116
vt 0.0299999993294477 0.0350000001490116
vt 0.0299999993294477 0.00999999977648258
vt 0.0125000001862645 0.00999999977648258
vt 0.00625000009313226 0.0116746826097369
vt 0.00167468248400837 0.0162499994039536
vt -5.3421848513904E-17 0.0225000008940697
vt 0.00167468248400837 0.0287500005215406
vt 0.00625000009313226 0.0333253182470798
vt 1.83376429225962E-17 0.0350000001490116
vt 0.0175000000745058 0.0350000001490116
vt 0.0237499997019768 0.0333253182470798
vt 0.028325317427516 0.0287500005215406
vt 0.0299999993294477 0.0225000008940697
vt 0.028325317427516 0.0162499994039536
vt 0.0237499997019768 0.0116746826097369
vt 0.0175000000745058 0.00999999977648258
vt 5.23932684473484E-18 0.00999999977648258
vt -5.05461689232821E-33 0.0350000001490116
vt 0.119999997317791 0.0350000001490116
vt 0.119999997317791 0.00999999977648258
vt -1.44417626807027E-33 0.00999999977648258
vt 0.0778253972530365 -0.150000005960464
vt 0.0658769831061363 -0.150000005960464
vt 0.0658769831061363 -0.100000001490116
vt 0.0778253972530365 -0.100000001490116
vt 0.0778253972530365 0.0199999995529652
vt 0.0658769831061363 0.0199999995529652
vt 0.0658769831061363 0.0700000002980232
vt 0.0778253972530365 0.0700000002980232
vt 0.0778253972530365 0.100000001490116
vt 1.65299869320106E-17 0.100000001490116
vt -5.78549575707595E-17 -0.349999994039536
vt 0.0778253972530365 -0.349999994039536
vt 0.0778253972530365 -0.319999992847443
vt 0.0658769831061363 -0.319999992847443
vt 0.0658769831061363 -0.270000010728836
vt 0.0778253972530365 -0.270000010728836
vt 2.83413015456332E-16 0.0700000002980232
vt 0.000900699174962938 0.0700000002980232
vt 0.00180139834992588 0.0700000002980232
vt 0.00270209740847349 0.0700000002980232
vt 0.00270209740847349 0.100000001490116
vt 0.00180139834992588 0.100000001490116
vt 0.000900699174962938 0.100000001490116
vt -4.96538853137698E-17 0.100000001490116
vt 9.92204302810214E-18 0.0700000002980232
vt 0.0152206346392632 0.0700000002980232
vt 0.0152206346392632 0.100000001490116
vt 1.41743469466657E-17 0.100000001490116
vt 6.51483948480667E-33 0.0350000001490116
vt 0.0500000007450581 0.0350000001490116
vt 0.0500000007450581 1.08765728033152E-33
vt 0 0
vt 2.83413015456332E-16 -0.100000001490116
vt 0.000900699174962938 -0.100000001490116
vt 0.00180139834992588 -0.100000001490116
vt 0.00270209740847349 -0.100000001490116
vt 0.00270209740847349 0.0199999995529652
vt 0.00180139834992588 0.0199999995529652
vt 0.000900699174962938 0.0199999995529652
vt 2.83413015456332E-16 0.0199999995529652
vt 0.0152206346392632 -0.319999992847443
vt -4.53579095675859E-17 -0.319999992847443
vt -4.96102134861495E-17 -0.349999994039536
vt 0.0152206346392632 -0.349999994039536
vt -1.41743469466657E-17 -0.100000001490116
vt 0.0152206346392632 -0.100000001490116
vt 0.0152206346392632 0.0199999995529652
vt 2.83486934797412E-18 0.0199999995529652
vt 2.94902990916057E-17 0.0700000002980232
vt 0.00171729468274862 0.0700000002980232
vt 0.00343458936549723 0.0700000002980232
vt 0.00515188416466117 0.0700000002980232
vt 0.00515188416466117 0.100000001490116
vt 0.00343458936549723 0.100000001490116
vt 0.00171729468274862 0.100000001490116
vt 2.94902990916057E-17 0.100000001490116
vt 0.00515188416466117 -0.319999992847443
vt 0.00343458936549723 -0.319999992847443
vt 0.00171729468274862 -0.319999992847443
vt 2.94902990916057E-17 -0.319999992847443
vt 2.94902990916057E-17 -0.349999994039536
vt 0.00171729468274862 -0.349999994039536
vt 0.00343458936549723 -0.349999994039536
vt 0.00515188416466117 -0.349999994039536
vt 2.94902990916057E-17 -0.100000001490116
vt 0.00171729468274862 -0.100000001490116
vt 0.00343458936549723 -0.100000001490116
vt 0.00515188416466117 -0.100000001490116
vt 0.00515188416466117 0.0199999995529652
vt 0.00343458936549723 0.0199999995529652
vt 0.00171729468274862 0.0199999995529652
vt 2.94902990916057E-17 0.0199999995529652
vt 0.0175000000745058 0.00999999977648258
vt 5.23932684473484E-18 0.00999999977648258
vt 1.83376429225962E-17 0.0350000001490116
vt 0.0175000000745058 0.0350000001490116
vt 0.0237499997019768 0.0333253182470798
vt 0.028325317427516 0.0287500005215406
vt 0.0299999993294477 0.0225000008940697
vt 0.028325317427516 0.0162499994039536
vt 0.0237499997019768 0.0116746826097369
vt 0.00966904778033495 -0.319999992847443
vt -2.77555756156289E-16 -0.319999992847443
vt 0 -0.349999994039536
vt 0.00966904778033495 -0.349999994039536
vt -2.77555756156289E-16 -0.100000001490116
vt 0.00966904778033495 -0.100000001490116
vt 0.00966904778033495 0.0199999995529652
vt -2.77555756156289E-16 0.0199999995529652
vt 0.0196349546313286 -0.319999992847443
vt 0.0130899697542191 -0.319999992847443
vt 0.00654498487710953 -0.319999992847443
vt 5.91906613201547E-19 -0.319999992847443
vt 5.91906613201547E-19 -0.349999994039536
vt 0.00654498487710953 -0.349999994039536
vt 0.0130899697542191 -0.349999994039536
vt 0.0196349546313286 -0.349999994039536
vt 5.91906613201547E-19 0.0700000002980232
vt 0.00654498487710953 0.0700000002980232
vt 0.0130899697542191 0.0700000002980232
vt 0.0196349546313286 0.0700000002980232
vt 0.0196349546313286 0.100000001490116
vt 0.0130899697542191 0.100000001490116
vt 0.00654498487710953 0.100000001490116
vt 5.91906613201547E-19 0.100000001490116
vt 5.91906613201547E-19 -0.100000001490116
vt 0.00654498487710953 -0.100000001490116
vt 0.0130899697542191 -0.100000001490116
vt 0.0196349546313286 -0.100000001490116
vt 0.0196349546313286 0.0199999995529652
vt 0.0130899697542191 0.0199999995529652
vt 0.00654498487710953 0.0199999995529652
vt 5.91906613201547E-19 0.0199999995529652
vt 0.0196349546313286 -0.150000005960464
vt 0.0130899697542191 -0.150000005960464
vt 0.00654498487710953 -0.150000005960464
vt 5.91906613201547E-19 -0.150000005960464
vt 5.91906613201547E-19 -0.270000010728836
vt 0.00654498487710953 -0.270000010728836
vt 0.0130899697542191 -0.270000010728836
vt 0.0196349546313286 -0.270000010728836
vt -0.00749999983236194 0.0294642858207226
vt 0.0175000000745058 0.0294642858207226
vt 0.0175000000745058 -0.0769642889499664
vt 0.015825318172574 -0.083214282989502
vt 0.0112500004470348 -0.0877896025776863
vt 0.00499999988824129 -0.0894642844796181
vt -0.00466904789209366 -0.0894642844796181
vt -0.0063527780584991 -0.0891722664237022
vt -0.00783983338624239 -0.0883303061127663
vt -0.00895651243627071 -0.0870367661118507
vt -0.016787463799119 -0.0739851742982864
vt -0.0171789918094873 -0.0731753781437874
vt -0.0174190923571587 -0.0723085328936577
vt -0.0175000000745058 -0.0714126974344254
vt -0.0175000000745058 0.00641269935294986
vt -0.0174190923571587 0.00730853481218219
vt -0.0171789918094873 0.00817537866532803
vt -0.016787463799119 0.0089851776137948
vt -0.00821253564208746 0.0232767276465893
vt -0.00782100856304169 0.0240865256637335
vt -0.00758090661838651 0.024953369051218
vt -0.00749999983236194 0.0258492063730955
vt -2.01017854906487E-18 -0.150000005960464
vt 0.00654498487710953 -0.150000005960464
vt 0.0130899697542191 -0.150000005960464
vt 0.0196349546313286 -0.150000005960464
vt 0.0261799395084381 -0.150000005960464
vt 0.0327249243855476 -0.150000005960464
vt 0.0392699092626572 -0.150000005960464
vt 0.0392699092626572 -0.100000001490116
vt 0.0327249243855476 -0.100000001490116
vt 0.0261799395084381 -0.100000001490116
vt 0.0196349546313286 -0.100000001490116
vt 0.0130899697542191 -0.100000001490116
vt 0.00654498487710953 -0.100000001490116
vt -2.01017854906487E-18 -0.100000001490116
vt 0.0392699092626572 -0.270000010728836
vt 0.0327249243855476 -0.270000010728836
vt 0.0261799395084381 -0.270000010728836
vt 0.0196349546313286 -0.270000010728836
vt 0.0130899697542191 -0.270000010728836
vt 0.00654498487710953 -0.270000010728836
vt -2.01017854906487E-18 -0.270000010728836
vt -2.01017854906487E-18 -0.319999992847443
vt 0.00654498487710953 -0.319999992847443
vt 0.0130899697542191 -0.319999992847443
vt 0.0196349546313286 -0.319999992847443
vt 0.0261799395084381 -0.319999992847443
vt 0.0327249243855476 -0.319999992847443
vt 0.0392699092626572 -0.319999992847443
vt 0.0175000000745058 0.0700000002980232
vt 1.15709911832797E-17 0.0700000002980232
vt 3.30599751047921E-18 0.0199999995529652
vt 0.0175000000745058 0.0199999995529652
vt 0.0175000000745058 -0.100000001490116
vt -1.65299869320106E-17 -0.100000001490116
vt -2.47949803980159E-17 -0.150000005960464
vt 0.0175000000745058 -0.150000005960464
vt 0.0175000000745058 -0.270000010728836
vt -4.4630966701662E-17 -0.270000010728836
vt -5.28959601676673E-17 -0.319999992847443
vt 0.0175000000745058 -0.319999992847443
vt 0.0474999994039536 -0.349999994039536
vt 0.0511150807142258 -0.349999994039536
vt 0.0511150807142258 0.100000001490116
vt 0.0474999994039536 0.100000001490116
vt 0.0392699092626572 0.0700000002980232
vt 0.0327249243855476 0.0700000002980232
vt 0.0261799395084381 0.0700000002980232
vt 0.0196349546313286 0.0700000002980232
vt 0.0130899697542191 0.0700000002980232
vt 0.00654498487710953 0.0700000002980232
vt -2.01017854906487E-18 0.0700000002980232
vt -2.01017854906487E-18 0.0199999995529652
vt 0.00654498487710953 0.0199999995529652
vt 0.0130899697542191 0.0199999995529652
vt 0.0196349546313286 0.0199999995529652
vt 0.0261799395084381 0.0199999995529652
vt 0.0327249243855476 0.0199999995529652
vt 0.0392699092626572 0.0199999995529652
vt 0.0175000000745058 -0.150000005960464
vt 2.47949803980159E-17 -0.150000005960464
vt 4.4630966701662E-17 -0.270000010728836
vt 0.0175000000745058 -0.270000010728836
vt 0.0175000000745058 -0.319999992847443
vt 5.28959601676673E-17 -0.319999992847443
vt 5.78549575707595E-17 -0.349999994039536
vt 0.106428571045399 -0.349999994039536
vt 0.136428564786911 -0.319999992847443
vt 0.153928577899933 -0.319999992847443
vt 0.153928577899933 -0.270000010728836
vt 0.136428564786911 -0.270000010728836
vt 0.136428564786911 -0.150000005960464
vt 0.153928577899933 -0.150000005960464
vt 0.153928577899933 -0.100000001490116
vt 0.136428564786911 -0.100000001490116
vt 0.136428564786911 0.0199999995529652
vt 0.153928577899933 0.0199999995529652
vt 0.153928577899933 0.0700000002980232
vt 0.136428564786911 0.0700000002980232
vt 0.106428571045399 0.100000001490116
vt -1.65299869320106E-17 0.100000001490116
vt -1.15709911832797E-17 0.0700000002980232
vt 0.0175000000745058 0.0700000002980232
vt 0.0175000000745058 0.0199999995529652
vt -3.30599751047921E-18 0.0199999995529652
vt 1.65299869320106E-17 -0.100000001490116
vt 0.0175000000745058 -0.100000001490116
vt 0.00966904778033495 -0.150000005960464
vt -2.77555756156289E-16 -0.150000005960464
vt -2.77555756156289E-16 -0.270000010728836
vt 0.00966904778033495 -0.270000010728836
vt 0.00515188416466117 -0.150000005960464
vt 0.00343458936549723 -0.150000005960464
vt 0.00171729468274862 -0.150000005960464
vt 2.94902990916057E-17 -0.150000005960464
vt 2.94902990916057E-17 -0.270000010728836
vt 0.00171729468274862 -0.270000010728836
vt 0.00343458936549723 -0.270000010728836
vt 0.00515188416466117 -0.270000010728836
vt 0.0152206346392632 -0.150000005960464
vt -2.12615212471792E-17 -0.150000005960464
vt -3.82707385757949E-17 -0.270000010728836
vt 0.0152206346392632 -0.270000010728836
vt 0.00270209740847349 -0.150000005960464
vt 0.00180139834992588 -0.150000005960464
vt 0.000900699174962938 -0.150000005960464
vt 2.83413015456332E-16 -0.150000005960464
vt 2.83413015456332E-16 -0.270000010728836
vt 0.000900699174962938 -0.270000010728836
vt 0.00180139834992588 -0.270000010728836
vt 0.00270209740847349 -0.270000010728836
vt 0.00270209740847349 -0.349999994039536
vt 0.00270209740847349 0.100000001490116
vt 0.00180139834992588 0.100000001490116
vt 0.000900699174962938 0.100000001490116
vt -4.77048955893622E-17 0.100000001490116
vt -4.77048955893622E-17 -0.349999994039536
vt 0.000900699174962938 -0.349999994039536
vt 0.00180139834992588 -0.349999994039536
vt 0.0166666675359011 -0.349999994039536
vt 0.0166666675359011 0.100000001490116
vt 1.41743469466657E-17 0.100000001490116
vt -4.96102134861495E-17 -0.349999994039536
vt -0.0157079640775919 -0.349999994039536
vt -0.0157079640775919 0.100000001490116
vt -0.0148072643205523 0.100000001490116
vt -0.0139065645635128 0.100000001490116
vt -0.0130058657377958 0.100000001490116
vt -0.0130058657377958 -0.349999994039536
vt -0.0139065645635128 -0.349999994039536
vt -0.0148072643205523 -0.349999994039536
vt 0.0175000000745058 0.0294642858207226
vt -0.00749999983236194 0.0294642858207226
vt -0.00749999983236194 0.0258492063730955
vt -0.00758090661838651 0.024953369051218
vt -0.00782100856304169 0.0240865256637335
vt -0.00821253564208746 0.0232767276465893
vt -0.016787463799119 0.0089851776137948
vt -0.0171789918094873 0.00817537866532803
vt -0.0174190923571587 0.00730853481218219
vt -0.0175000000745058 0.00641269935294986
vt -0.0175000000745058 -0.0714126974344254
vt -0.0174190923571587 -0.0723085328936577
vt -0.0171789918094873 -0.0731753781437874
vt -0.016787463799119 -0.0739851742982864
vt -0.00895651243627071 -0.0870367661118507
vt -0.00783983338624239 -0.0883303061127663
vt -0.0063527780584991 -0.0891722664237022
vt -0.00466904789209366 -0.0894642844796181
vt 0.00499999988824129 -0.0894642844796181
vt 0.0112500004470348 -0.0877896025776863
vt 0.015825318172574 -0.083214282989502
vt 0.0175000000745058 -0.0769642889499664

o excavator_BobcatE85_shoe\Solid
g excavator_BobcatE85_shoe\Solid
s off

usemtl c_0

# face 0
f 2/2/2 4/4/4 1/1/1
f 1/1/1 4/4/4 6/6/6
f 1/1/1 6/6/6 7/7/7
f 2/2/2 3/3/3 4/4/4
f 4/4/4 5/5/5 6/6/6
f 8/8/8 10/10/10 7/7/7
f 7/7/7 10/10/10 14/14/14
f 7/7/7 14/14/14 1/1/1
f 8/8/8 9/9/9 10/10/10
f 10/10/10 11/11/11 14/14/14
f 14/14/14 11/11/11 12/12/12
f 14/14/14 12/12/12 13/13/13

# face 1
f 22/22/22 15/15/15 21/21/21
f 21/21/21 15/15/15 16/16/16
f 21/21/21 16/16/16 20/20/20
f 20/20/20 16/16/16 17/17/17
f 20/20/20 17/17/17 19/19/19
f 19/19/19 17/17/17 18/18/18

# face 2
f 24/24/24 25/25/25 23/23/23
f 23/23/23 25/25/25 26/26/26
f 23/23/23 26/26/26 35/35/35
f 35/35/35 26/26/26 34/34/34
f 26/26/26 27/27/27 34/34/34
f 34/34/34 27/27/27 31/31/31
f 34/34/34 31/31/31 33/33/33
f 33/33/33 31/31/31 32/32/32
f 28/28/28 29/29/29 27/27/27
f 27/27/27 29/29/29 30/30/30
f 27/27/27 30/30/30 31/31/31
f 35/35/35 36/36/36 23/23/23

# face 3
f 38/38/38 40/40/40 37/37/37
f 37/37/37 40/40/40 42/42/42
f 37/37/37 42/42/42 43/43/43
f 38/38/38 39/39/39 40/40/40
f 40/40/40 41/41/41 42/42/42
f 44/44/44 46/46/46 43/43/43
f 43/43/43 46/46/46 50/50/50
f 43/43/43 50/50/50 37/37/37
f 44/44/44 45/45/45 46/46/46
f 46/46/46 47/47/47 50/50/50
f 50/50/50 47/47/47 48/48/48
f 50/50/50 48/48/48 49/49/49

# face 4
f 51/51/51 52/52/52 54/54/54
f 54/54/54 52/52/52 53/53/53

# face 5
f 56/56/56 57/57/57 55/55/55
f 55/55/55 57/57/57 58/58/58
f 55/55/55 58/58/58 67/67/67
f 67/67/67 58/58/58 66/66/66
f 58/58/58 59/59/59 66/66/66
f 66/66/66 59/59/59 63/63/63
f 66/66/66 63/63/63 65/65/65
f 65/65/65 63/63/63 64/64/64
f 60/60/60 61/61/61 59/59/59
f 59/59/59 61/61/61 62/62/62
f 59/59/59 62/62/62 63/63/63
f 67/67/67 68/68/68 55/55/55

# face 6
f 69/69/69 70/70/70 72/72/72
f 72/72/72 70/70/70 71/71/71

# face 7
f 73/73/73 74/74/74 76/76/76
f 76/76/76 74/74/74 75/75/75

# face 8
f 78/78/78 80/80/80 77/77/77
f 77/77/77 80/80/80 81/81/81
f 77/77/77 81/81/81 82/82/82
f 78/78/78 79/79/79 80/80/80
f 82/82/82 83/83/83 77/77/77
f 77/77/77 83/83/83 84/84/84
f 77/77/77 84/84/84 85/85/85

# face 9
f 86/86/86 87/87/87 89/89/89
f 89/89/89 87/87/87 88/88/88

# face 10
f 90/90/90 91/91/91 98/98/98
f 98/98/98 91/91/91 97/97/97
f 92/92/92 93/93/93 91/91/91
f 91/91/91 93/93/93 94/94/94
f 91/91/91 94/94/94 95/95/95
f 95/95/95 96/96/96 91/91/91
f 91/91/91 96/96/96 97/97/97

# face 11
f 100/100/100 102/102/102 99/99/99
f 99/99/99 102/102/102 104/104/104
f 99/99/99 104/104/104 105/105/105
f 100/100/100 101/101/101 102/102/102
f 102/102/102 103/103/103 104/104/104
f 106/106/106 108/108/108 105/105/105
f 105/105/105 108/108/108 112/112/112
f 105/105/105 112/112/112 99/99/99
f 106/106/106 107/107/107 108/108/108
f 108/108/108 109/109/109 112/112/112
f 112/112/112 109/109/109 110/110/110
f 112/112/112 110/110/110 111/111/111

# face 12
f 113/113/113 114/114/114 116/116/116
f 116/116/116 114/114/114 115/115/115

# face 13
f 117/117/117 118/118/118 120/120/120
f 120/120/120 118/118/118 119/119/119

# face 14
f 122/122/122 123/123/123 121/121/121
f 121/121/121 123/123/123 124/124/124
f 121/121/121 124/124/124 133/133/133
f 133/133/133 124/124/124 132/132/132
f 124/124/124 125/125/125 132/132/132
f 132/132/132 125/125/125 129/129/129
f 132/132/132 129/129/129 131/131/131
f 131/131/131 129/129/129 130/130/130
f 126/126/126 127/127/127 125/125/125
f 125/125/125 127/127/127 128/128/128
f 125/125/125 128/128/128 129/129/129
f 133/133/133 134/134/134 121/121/121

# face 15
f 135/135/135 136/136/136 143/143/143
f 143/143/143 136/136/136 142/142/142
f 137/137/137 138/138/138 136/136/136
f 136/136/136 138/138/138 139/139/139
f 136/136/136 139/139/139 140/140/140
f 140/140/140 141/141/141 136/136/136
f 136/136/136 141/141/141 142/142/142

# face 16
f 152/152/152 144/144/144 147/147/147
f 147/147/147 144/144/144 145/145/145
f 147/147/147 145/145/145 146/146/146
f 148/148/148 149/149/149 147/147/147
f 147/147/147 149/149/149 150/150/150
f 147/147/147 150/150/150 151/151/151
f 151/151/151 152/152/152 147/147/147

# face 17
f 153/153/153 154/154/154 161/161/161
f 161/161/161 154/154/154 160/160/160
f 154/154/154 155/155/155 160/160/160
f 160/160/160 155/155/155 156/156/156
f 160/160/160 156/156/156 157/157/157
f 157/157/157 158/158/158 160/160/160
f 160/160/160 158/158/158 159/159/159

# face 18
f 162/162/162 163/163/163 165/165/165
f 165/165/165 163/163/163 164/164/164

# face 19
f 166/166/166 167/167/167 181/181/181
f 181/181/181 167/167/167 180/180/180
f 180/180/180 167/167/167 176/176/176
f 176/176/176 167/167/167 168/168/168
f 176/176/176 168/168/168 175/175/175
f 175/175/175 168/168/168 171/171/171
f 175/175/175 171/171/171 172/172/172
f 168/168/168 169/169/169 171/171/171
f 171/171/171 169/169/169 170/170/170
f 173/173/173 174/174/174 172/172/172
f 172/172/172 174/174/174 175/175/175
f 180/180/180 176/176/176 179/179/179
f 179/179/179 176/176/176 177/177/177
f 179/179/179 177/177/177 178/178/178

# face 20
f 189/189/189 182/182/182 188/188/188
f 188/188/188 182/182/182 183/183/183
f 188/188/188 183/183/183 187/187/187
f 187/187/187 183/183/183 184/184/184
f 187/187/187 184/184/184 186/186/186
f 186/186/186 184/184/184 185/185/185

# face 21
f 190/190/190 191/191/191 193/193/193
f 193/193/193 191/191/191 192/192/192

# face 22
f 194/194/194 195/195/195 197/197/197
f 197/197/197 195/195/195 196/196/196

# face 23
f 205/205/205 198/198/198 204/204/204
f 204/204/204 198/198/198 199/199/199
f 204/204/204 199/199/199 203/203/203
f 203/203/203 199/199/199 200/200/200
f 203/203/203 200/200/200 202/202/202
f 202/202/202 200/200/200 201/201/201

# face 24
f 206/206/206 207/207/207 209/209/209
f 209/209/209 207/207/207 208/208/208

# face 25
f 210/210/210 211/211/211 213/213/213
f 213/213/213 211/211/211 212/212/212

# face 26
f 221/221/221 214/214/214 220/220/220
f 220/220/220 214/214/214 215/215/215
f 220/220/220 215/215/215 219/219/219
f 219/219/219 215/215/215 216/216/216
f 219/219/219 216/216/216 218/218/218
f 218/218/218 216/216/216 217/217/217

# face 27
f 229/229/229 222/222/222 228/228/228
f 228/228/228 222/222/222 223/223/223
f 228/228/228 223/223/223 227/227/227
f 227/227/227 223/223/223 224/224/224
f 227/227/227 224/224/224 226/226/226
f 226/226/226 224/224/224 225/225/225

# face 28
f 237/237/237 230/230/230 236/236/236
f 236/236/236 230/230/230 231/231/231
f 236/236/236 231/231/231 235/235/235
f 235/235/235 231/231/231 232/232/232
f 235/235/235 232/232/232 234/234/234
f 234/234/234 232/232/232 233/233/233

# face 29
f 239/239/239 241/241/241 238/238/238
f 238/238/238 241/241/241 242/242/242
f 238/238/238 242/242/242 243/243/243
f 239/239/239 240/240/240 241/241/241
f 243/243/243 244/244/244 238/238/238
f 238/238/238 244/244/244 245/245/245
f 238/238/238 245/245/245 246/246/246

# face 30
f 247/247/247 248/248/248 250/250/250
f 250/250/250 248/248/248 249/249/249

# face 31
f 251/251/251 252/252/252 254/254/254
f 254/254/254 252/252/252 253/253/253

# face 32
f 255/255/255 256/256/256 262/262/262
f 262/262/262 256/256/256 261/261/261
f 261/261/261 256/256/256 260/260/260
f 260/260/260 256/256/256 257/257/257
f 260/260/260 257/257/257 258/258/258
f 258/258/258 259/259/259 260/260/260

# face 33
f 263/263/263 264/264/264 270/270/270
f 270/270/270 264/264/264 269/269/269
f 269/269/269 264/264/264 268/268/268
f 268/268/268 264/264/264 265/265/265
f 268/268/268 265/265/265 266/266/266
f 266/266/266 267/267/267 268/268/268

# face 34
f 271/271/271 272/272/272 278/278/278
f 278/278/278 272/272/272 277/277/277
f 277/277/277 272/272/272 276/276/276
f 276/276/276 272/272/272 273/273/273
f 276/276/276 273/273/273 274/274/274
f 274/274/274 275/275/275 276/276/276

# face 35
f 279/279/279 280/280/280 286/286/286
f 286/286/286 280/280/280 285/285/285
f 285/285/285 280/280/280 284/284/284
f 284/284/284 280/280/280 281/281/281
f 284/284/284 281/281/281 282/282/282
f 282/282/282 283/283/283 284/284/284

# face 36
f 287/287/287 288/288/288 308/308/308
f 308/308/308 288/288/288 307/307/307
f 298/298/298 299/299/299 297/297/297
f 297/297/297 299/299/299 300/300/300
f 297/297/297 300/300/300 289/289/289
f 289/289/289 300/300/300 301/301/301
f 289/289/289 301/301/301 288/288/288
f 288/288/288 301/301/301 304/304/304
f 288/288/288 304/304/304 305/305/305
f 290/290/290 292/292/292 289/289/289
f 289/289/289 292/292/292 296/296/296
f 289/289/289 296/296/296 297/297/297
f 290/290/290 291/291/291 292/292/292
f 292/292/292 293/293/293 296/296/296
f 296/296/296 293/293/293 295/295/295
f 293/293/293 294/294/294 295/295/295
f 302/302/302 303/303/303 301/301/301
f 301/301/301 303/303/303 304/304/304
f 305/305/305 306/306/306 288/288/288
f 288/288/288 306/306/306 307/307/307

# face 37
f 309/309/309 310/310/310 322/322/322
f 322/322/322 310/310/310 321/321/321
f 321/321/321 310/310/310 320/320/320
f 320/320/320 310/310/310 311/311/311
f 320/320/320 311/311/311 312/312/312
f 313/313/313 318/318/318 312/312/312
f 312/312/312 318/318/318 319/319/319
f 312/312/312 319/319/319 320/320/320
f 313/313/313 314/314/314 318/318/318
f 318/318/318 314/314/314 317/317/317
f 315/315/315 316/316/316 314/314/314
f 314/314/314 316/316/316 317/317/317

# face 38
f 336/336/336 323/323/323 335/335/335
f 335/335/335 323/323/323 324/324/324
f 335/335/335 324/324/324 325/325/325
f 326/326/326 333/333/333 325/325/325
f 325/325/325 333/333/333 334/334/334
f 325/325/325 334/334/334 335/335/335
f 326/326/326 327/327/327 333/333/333
f 333/333/333 327/327/327 332/332/332
f 332/332/332 327/327/327 331/331/331
f 331/331/331 327/327/327 328/328/328
f 331/331/331 328/328/328 329/329/329
f 329/329/329 330/330/330 331/331/331

# face 39
f 338/338/338 340/340/340 337/337/337
f 337/337/337 340/340/340 351/351/351
f 337/337/337 351/351/351 352/352/352
f 338/338/338 339/339/339 340/340/340
f 340/340/340 341/341/341 351/351/351
f 351/351/351 341/341/341 350/350/350
f 350/350/350 341/341/341 344/344/344
f 344/344/344 341/341/341 342/342/342
f 344/344/344 342/342/342 343/343/343
f 344/344/344 345/345/345 350/350/350
f 350/350/350 345/345/345 348/348/348
f 350/350/350 348/348/348 349/349/349
f 345/345/345 346/346/346 348/348/348
f 348/348/348 346/346/346 347/347/347

# face 40
f 366/366/366 353/353/353 365/365/365
f 365/365/365 353/353/353 354/354/354
f 365/365/365 354/354/354 355/355/355
f 356/356/356 363/363/363 355/355/355
f 355/355/355 363/363/363 364/364/364
f 355/355/355 364/364/364 365/365/365
f 356/356/356 357/357/357 363/363/363
f 363/363/363 357/357/357 362/362/362
f 362/362/362 357/357/357 361/361/361
f 361/361/361 357/357/357 358/358/358
f 361/361/361 358/358/358 359/359/359
f 359/359/359 360/360/360 361/361/361

# face 41
f 368/368/368 370/370/370 367/367/367
f 367/367/367 370/370/370 378/378/378
f 367/367/367 378/378/378 379/379/379
f 368/368/368 369/369/369 370/370/370
f 378/378/378 370/370/370 374/374/374
f 374/374/374 370/370/370 371/371/371
f 374/374/374 371/371/371 373/373/373
f 373/373/373 371/371/371 372/372/372
f 374/374/374 375/375/375 378/378/378
f 378/378/378 375/375/375 376/376/376
f 378/378/378 376/376/376 377/377/377
f 380/380/380 382/382/382 379/379/379
f 379/379/379 382/382/382 394/394/394
f 379/379/379 394/394/394 367/367/367
f 380/380/380 381/381/381 382/382/382
f 394/394/394 382/382/382 391/391/391
f 391/391/391 382/382/382 383/383/383
f 391/391/391 383/383/383 387/387/387
f 387/387/387 383/383/383 386/386/386
f 383/383/383 384/384/384 386/386/386
f 386/386/386 384/384/384 385/385/385
f 391/391/391 387/387/387 390/390/390
f 390/390/390 387/387/387 388/388/388
f 390/390/390 388/388/388 389/389/389
f 391/391/391 392/392/392 394/394/394
f 394/394/394 392/392/392 393/393/393

# face 42
f 395/395/395 396/396/396 398/398/398
f 398/398/398 396/396/396 397/397/397

# face 43
f 406/406/406 399/399/399 405/405/405
f 405/405/405 399/399/399 400/400/400
f 405/405/405 400/400/400 404/404/404
f 404/404/404 400/400/400 401/401/401
f 404/404/404 401/401/401 403/403/403
f 403/403/403 401/401/401 402/402/402

# face 44
f 407/407/407 408/408/408 410/410/410
f 410/410/410 408/408/408 409/409/409

# face 45
f 418/418/418 411/411/411 417/417/417
f 417/417/417 411/411/411 412/412/412
f 417/417/417 412/412/412 416/416/416
f 416/416/416 412/412/412 413/413/413
f 416/416/416 413/413/413 415/415/415
f 415/415/415 413/413/413 414/414/414

# face 46
f 419/419/419 420/420/420 426/426/426
f 426/426/426 420/420/420 421/421/421
f 426/426/426 421/421/421 425/425/425
f 425/425/425 421/421/421 422/422/422
f 425/425/425 422/422/422 424/424/424
f 424/424/424 422/422/422 423/423/423

# face 47
f 428/428/428 429/429/429 427/427/427
f 427/427/427 429/429/429 430/430/430

# face 48
f 431/431/431 432/432/432 438/438/438
f 438/438/438 432/432/432 433/433/433
f 438/438/438 433/433/433 437/437/437
f 437/437/437 433/433/433 434/434/434
f 437/437/437 434/434/434 436/436/436
f 436/436/436 434/434/434 435/435/435

# face 49
f 440/440/440 441/441/441 439/439/439
f 439/439/439 441/441/441 442/442/442
f 439/439/439 442/442/442 443/443/443
f 443/443/443 444/444/444 439/439/439
f 439/439/439 444/444/444 445/445/445
f 439/439/439 445/445/445 448/448/448
f 448/448/448 445/445/445 446/446/446
f 448/448/448 446/446/446 447/447/447
f 439/439/439 448/448/448 460/460/460
f 460/460/460 448/448/448 449/449/449
f 460/460/460 449/449/449 452/452/452
f 452/452/452 449/449/449 450/450/450
f 452/452/452 450/450/450 451/451/451
f 452/452/452 453/453/453 460/460/460
f 460/460/460 453/453/453 457/457/457
f 460/460/460 457/457/457 459/459/459
f 459/459/459 457/457/457 458/458/458
f 457/457/457 453/453/453 456/456/456
f 456/456/456 453/453/453 454/454/454
f 456/456/456 454/454/454 455/455/455
